<?xml version="1.0" standalone="no"?>
<!DOCTYPE svg PUBLIC "-//W3C//DTD SVG 20010904//EN"
 "http://www.w3.org/TR/2001/REC-SVG-20010904/DTD/svg10.dtd">
<svg version="1.0" xmlns="http://www.w3.org/2000/svg"
 width="700.000000pt" height="570.000000pt" viewBox="0 0 700.000000 570.000000"
 preserveAspectRatio="xMidYMid meet">

<g transform="translate(0.000000,570.000000) scale(0.100000,-0.100000)"
fill="#000000" stroke="none">
<path d="M4180 4390 c0 -5 5 -10 10 -10 6 0 10 5 10 10 0 6 -4 10 -10 10 -5 0
-10 -4 -10 -10z"/>
<path d="M4200 4354 c0 -8 5 -12 10 -9 6 4 8 11 5 16 -9 14 -15 11 -15 -7z"/>
<path d="M4210 4320 c0 -5 5 -10 11 -10 5 0 7 5 4 10 -3 6 -8 10 -11 10 -2 0
-4 -4 -4 -10z"/>
<path d="M3914 4165 c3 -11 7 -31 11 -45 5 -18 4 -21 -4 -11 -8 12 -11 10 -16
-12 -4 -15 -11 -24 -16 -21 -5 3 -9 0 -9 -6 0 -6 -5 -8 -10 -5 -7 4 -9 -3 -5
-22 5 -19 4 -24 -3 -14 -8 11 -11 9 -17 -8 -3 -11 -13 -21 -21 -21 -8 0 -14
-7 -14 -16 0 -8 -4 -12 -10 -9 -5 3 -10 2 -10 -4 0 -10 -10 -9 -60 5 -19 5
-13 -2 21 -28 26 -20 55 -38 65 -42 47 -14 195 -25 252 -20 87 9 107 27 107
96 0 50 -31 155 -43 144 -3 -3 -13 4 -23 16 -13 14 -19 16 -19 7 0 -9 -3 -10
-8 -4 -4 6 -14 10 -22 10 -8 0 -19 4 -23 10 -5 5 -6 -3 -3 -20 4 -19 3 -25 -2
-17 -5 8 -12 13 -16 13 -3 -1 -20 6 -37 15 -17 8 -37 13 -44 10 -8 -3 -16 0
-19 7 -3 7 -4 3 -2 -8z m143 -37 c-3 -8 -6 -5 -6 6 -1 11 2 17 5 13 3 -3 4
-12 1 -19z"/>
<path d="M4290 4040 c0 -5 5 -10 11 -10 5 0 7 5 4 10 -3 6 -8 10 -11 10 -2 0
-4 -4 -4 -10z"/>
<path d="M4536 3968 c-3 -13 -14 -71 -26 -129 -34 -181 -87 -317 -189 -482
-97 -158 -257 -392 -303 -442 -73 -80 -173 -126 -358 -165 -83 -17 -156 -38
-170 -48 -60 -45 -64 -102 -15 -215 19 -44 35 -86 35 -92 0 -7 -9 -24 -20 -38
-19 -24 -28 -26 -108 -29 -80 -3 -87 -5 -87 -23 1 -26 -14 -36 -42 -28 -15 3
-23 1 -23 -8 0 -10 -3 -10 -12 -1 -18 18 -27 15 -21 -7 4 -14 -5 -23 -36 -37
-28 -12 -41 -24 -41 -38 0 -27 -22 -86 -32 -86 -4 0 -8 -5 -8 -11 0 -5 -16
-31 -35 -57 -52 -70 -58 -75 -120 -107 -35 -17 -40 -25 -43 -58 -3 -32 -8 -39
-39 -52 -19 -8 -47 -15 -62 -15 -14 0 -33 -4 -41 -10 -9 -6 -17 -5 -22 3 -11
17 -43 -5 -44 -30 -1 -27 -12 -43 -28 -43 -8 0 -19 -7 -26 -15 -7 -9 -19 -14
-26 -11 -7 3 -16 1 -19 -4 -4 -6 -20 -10 -36 -10 -19 0 -38 -9 -53 -25 -13
-14 -30 -25 -38 -25 -8 0 -25 -9 -38 -20 -13 -11 -27 -20 -32 -20 -5 0 -6 -4
-3 -10 3 -5 -3 -10 -13 -10 -11 0 -24 -6 -30 -13 -20 -24 146 14 448 103 159
47 231 76 390 158 121 63 140 76 235 153 100 81 144 124 211 204 53 64 264
375 264 389 0 7 110 171 186 276 65 90 165 212 244 295 71 75 188 213 258 304
38 49 70 94 134 190 25 37 22 63 -17 147 -38 82 -121 214 -136 214 -5 0 -11
-10 -13 -22z"/>
<path d="M3613 3861 c-24 -4 -46 -11 -50 -15 -5 -5 6 -5 22 -2 17 3 52 8 78
10 26 2 51 7 54 10 8 8 -48 6 -104 -3z"/>
<path d="M3744 3858 c-3 -4 23 -7 58 -7 66 1 62 6 -10 11 -24 2 -46 0 -48 -4z"/>
<path d="M2986 3842 c-4 -11 -15 -27 -26 -37 -11 -10 -20 -28 -19 -39 0 -19 1
-20 8 -2 7 17 8 17 23 2 15 -14 16 -11 20 37 5 58 3 68 -6 39z"/>
<path d="M4150 3850 c-21 -7 -21 -8 -5 -9 11 0 27 4 35 9 18 11 5 11 -30 0z"/>
<path d="M3883 3843 c9 -2 23 -2 30 0 6 3 -1 5 -18 5 -16 0 -22 -2 -12 -5z"/>
<path d="M3993 3833 c26 -2 67 -2 90 0 23 2 2 3 -48 3 -49 0 -68 -1 -42 -3z"/>
<path d="M3501 3809 c-13 -11 -22 -21 -20 -23 2 -3 17 7 32 20 15 13 24 24 20
24 -4 -1 -19 -10 -32 -21z"/>
<path d="M4316 3691 c-62 -123 -191 -308 -283 -407 -51 -55 -121 -104 -149
-104 -37 0 -83 46 -90 91 -4 22 -11 42 -16 45 -11 7 -53 -88 -61 -137 -14 -94
45 -179 125 -179 58 0 120 33 174 93 74 82 207 282 271 408 51 99 61 126 66
185 3 38 4 71 2 73 -2 1 -20 -29 -39 -68z"/>
<path d="M3455 3739 c-4 -6 -5 -12 -2 -15 2 -3 7 2 10 11 7 17 1 20 -8 4z"/>
<path d="M3020 3717 c0 -8 7 -20 16 -27 13 -11 19 -10 37 9 l22 23 -23 -7
c-13 -4 -29 -2 -37 5 -12 10 -15 9 -15 -3z"/>
<path d="M3626 3696 c-7 -27 1 -56 15 -56 17 0 27 34 16 57 -13 30 -23 29 -31
-1z"/>
<path d="M3764 3695 c-8 -21 2 -45 19 -45 20 0 40 27 33 45 -7 19 -45 20 -52
0z"/>
<path d="M2890 3648 c0 -32 17 -46 26 -23 4 9 0 24 -10 33 -15 15 -16 14 -16
-10z"/>
<path d="M3396 3543 c-9 -32 -21 -66 -27 -77 -8 -13 -7 -17 1 -14 14 4 62 148
50 148 -5 0 -16 -26 -24 -57z"/>
<path d="M3170 3585 c0 -1 11 -10 24 -18 22 -15 24 -15 29 2 3 14 -2 18 -24
19 -16 0 -29 -1 -29 -3z"/>
<path d="M3462 3398 c-7 -7 -12 -20 -12 -31 0 -24 33 -19 38 7 5 24 -11 39
-26 24z"/>
<path d="M4931 3357 c-4 -56 -65 -131 -291 -358 -129 -129 -272 -268 -317
-308 -82 -72 -100 -101 -65 -101 19 0 185 164 195 193 4 9 14 17 24 17 24 0
181 154 189 184 3 14 15 27 27 31 12 4 60 47 106 97 88 95 146 197 138 240 -3
15 -5 17 -6 5z"/>
<path d="M2855 3340 c3 -5 8 -10 11 -10 2 0 4 5 4 10 0 6 -5 10 -11 10 -5 0
-7 -4 -4 -10z"/>
<path d="M4647 3223 c-88 -105 -197 -218 -266 -276 -64 -55 -81 -74 -81 -95 0
-38 14 -55 37 -48 26 8 328 308 358 357 24 37 25 40 9 64 -21 32 -29 31 -57
-2z"/>
<path d="M3378 3203 c-17 -20 -13 -43 7 -43 17 0 30 39 18 51 -6 6 -15 3 -25
-8z"/>
<path d="M2765 3181 c-3 -5 -1 -12 5 -16 5 -3 10 1 10 9 0 18 -6 21 -15 7z"/>
<path d="M2932 3128 c3 -7 13 -15 22 -16 12 -3 17 1 14 10 -3 7 -13 15 -22 16
-12 3 -17 -1 -14 -10z"/>
<path d="M3220 3075 c-10 -19 -11 -28 -2 -37 8 -8 14 -4 23 16 17 37 -2 56
-21 21z"/>
<path d="M2657 2948 c-22 -33 -32 -57 -26 -62 12 -13 63 25 68 50 1 10 9 26
17 35 8 9 11 19 7 22 -15 16 -33 4 -66 -45z"/>
<path d="M3143 2903 c-15 -5 -18 -43 -4 -43 5 0 14 7 21 15 14 17 3 35 -17 28z"/>
<path d="M3053 2773 c-15 -5 -17 -29 -4 -38 6 -3 15 3 21 14 11 21 3 31 -17
24z"/>
<path d="M4225 2750 c-3 -5 -1 -10 4 -10 6 0 11 5 11 10 0 6 -2 10 -4 10 -3 0
-8 -4 -11 -10z"/>
<path d="M2563 2662 c-7 -5 -9 -13 -4 -21 7 -11 11 -9 20 8 12 21 6 27 -16 13z"/>
<path d="M4173 2498 c-15 -20 -25 -38 -20 -38 3 0 12 11 21 25 17 26 16 35 -1
13z"/>
<path d="M4100 2409 c0 -5 5 -7 10 -4 6 3 10 8 10 11 0 2 -4 4 -10 4 -5 0 -10
-5 -10 -11z"/>
<path d="M4050 2359 c0 -5 5 -7 10 -4 6 3 10 8 10 11 0 2 -4 4 -10 4 -5 0 -10
-5 -10 -11z"/>
<path d="M3155 2290 c-3 -5 -2 -10 4 -10 5 0 13 5 16 10 3 6 2 10 -4 10 -5 0
-13 -4 -16 -10z"/>
<path d="M3915 2160 c-3 -5 -20 -9 -38 -7 -23 1 -32 -3 -35 -16 -6 -28 56 -19
76 11 8 12 12 22 9 22 -3 0 -9 -4 -12 -10z"/>
<path d="M3745 1970 c-3 -5 -2 -10 4 -10 5 0 13 5 16 10 3 6 2 10 -4 10 -5 0
-13 -4 -16 -10z"/>
<path d="M3408 1742 c-16 -2 -28 -8 -28 -13 0 -14 86 -11 98 4 11 13 -12 16
-70 9z"/>
<path d="M3341 1666 c-12 -15 -91 -48 -151 -65 -34 -9 -34 -9 -6 -10 32 -1
176 64 176 79 0 14 -6 12 -19 -4z"/>
<path d="M1975 1598 c15 -18 35 -36 44 -39 9 -3 16 -10 16 -15 0 -5 9 -21 21
-36 20 -26 21 -26 37 -8 15 18 14 20 -18 40 -19 12 -50 37 -69 56 -43 43 -67
45 -31 2z"/>
<path d="M2850 1520 c-47 -9 -118 -25 -157 -34 -130 -28 -304 -47 -378 -41
-77 7 -171 31 -180 46 -4 5 -11 9 -16 9 -5 0 -3 -10 5 -22 8 -13 15 -27 16
-33 1 -14 49 -26 77 -19 14 4 23 2 23 -5 0 -6 17 -11 40 -11 22 0 40 5 40 11
0 13 158 10 177 -4 19 -13 193 19 208 39 10 14 28 18 91 19 96 1 154 18 154
46 0 10 -3 19 -7 18 -5 0 -46 -9 -93 -19z"/>
</g>
</svg>
